<svg
  xmlns="http://www.w3.org/2000/svg"
  viewBox="0 0 512 512"
  fill="none"
  stroke="currentColor"
  stroke-width="32"
  stroke-linecap="round"
  stroke-linejoin="round"
  class="bi bi-pills"
>
  <path
    d="M345.6 216.8a15.95 15.95 0 0 1 0 22.56l-97.6 97.6a15.95 15.95 0 0 1-22.56 0L125.2 250.4a15.95 15.95 0 0 1 0-22.56L222.8 130.8a15.95 15.95 0 0 1 22.56 0l97.6 97.6z"
    fill="#0dcaf0"
  />
  <path
    d="M374.4 189.6a15.95 15.95 0 0 1 0 22.56L302.4 274.4a15.95 15.95 0 0 1-22.56 0L182.4 189.6a15.95 15.95 0 0 1 0-22.56l51.2-51.2a15.95 15.95 0 0 1 22.56 0l51.2 51.2z"
    fill="#6610f2"
  />
  <path
    d="M470.4 339.2a15.95 15.95 0 0 1 0 22.56l-93.6 93.6a15.95 15.95 0 0 1-22.56 0l-97.6-97.6a15.95 15.95 0 0 1 0-22.56l93.6-93.6a15.95 15.95 0 0 1 22.56 0l97.6 97.6z"
    fill="#20c997"
  />
  <path
    d="M440.8 248a15.95 15.95 0 0 1 0 22.56l-84.8 84.8a15.95 15.95 0 0 1-22.56 0l-93.6-93.6a15.95 15.95 0 0 1 0-22.56l84.8-84.8a15.95 15.95 0 0 1 22.56 0l93.6 93.6z"
    fill="#fd7e14"
  />
</svg>
